<svg width="21.000000" height="16.500000" viewBox="0 0 21 16.5" fill="none" xmlns="http://www.w3.org/2000/svg" xmlns:xlink="http://www.w3.org/1999/xlink">
	<desc>
			Created with Pixso.
	</desc>
	<defs/>
	<path id="Vector" d="M0 13.87C0 14.57 0.27 15.23 0.76 15.73C1.26 16.22 1.92 16.5 2.62 16.5L18.37 16.5C19.07 16.5 19.73 16.22 20.23 15.73C20.72 15.23 21 14.57 21 13.87L21 6.65L0 6.65L0 13.87ZM3.09 10.31C3.09 9.93 3.24 9.58 3.5 9.31C3.76 9.05 4.12 8.9 4.5 8.9L6.75 8.9C7.12 8.9 7.48 9.05 7.74 9.31C8 9.58 8.15 9.93 8.15 10.31L8.15 11.25C8.15 11.62 8 11.98 7.74 12.24C7.48 12.5 7.12 12.65 6.75 12.65L4.5 12.65C4.12 12.65 3.76 12.5 3.5 12.24C3.24 11.98 3.09 11.62 3.09 11.25L3.09 10.31ZM18.37 0L2.62 0C1.92 0 1.26 0.27 0.76 0.76C0.27 1.26 0 1.92 0 2.62L0 3.84L21 3.84L21 2.62C21 1.92 20.72 1.26 20.23 0.76C19.73 0.27 19.07 0 18.37 0Z" fill="#1A1F16" fill-opacity="1.000000" fill-rule="nonzero"/>
</svg>
