<svg width="18.000000" height="18.000000" viewBox="0 0 18 18" fill="none" xmlns="http://www.w3.org/2000/svg" xmlns:xlink="http://www.w3.org/1999/xlink">
	<desc>
			Created with Pixso.
	</desc>
	<defs>
		<clipPath id="clip4_491">
			<rect id="Icon" rx="0.000000" width="17.000000" height="17.000000" transform="translate(0.500000 0.500000)" fill="white" fill-opacity="0"/>
		</clipPath>
	</defs>
	<rect id="Icon" rx="0.000000" width="17.000000" height="17.000000" transform="translate(0.500000 0.500000)" fill="#FFFFFF" fill-opacity="0"/>
	<g clip-path="url(#clip4_491)">
		<path id="Vector" d="M7.31 14.62C7.31 15.24 6.8 15.75 6.18 15.75C5.56 15.75 5.06 15.24 5.06 14.62C5.06 14 5.56 13.5 6.18 13.5C6.8 13.5 7.31 14 7.31 14.62Z" fill="#FFFFFF" fill-opacity="1.000000" fill-rule="evenodd"/>
		<path id="Vector" d="M15.18 14.62C15.18 15.24 14.68 15.75 14.06 15.75C13.44 15.75 12.93 15.24 12.93 14.62C12.93 14 13.44 13.5 14.06 13.5C14.68 13.5 15.18 14 15.18 14.62Z" fill="#FFFFFF" fill-opacity="1.000000" fill-rule="evenodd"/>
		<path id="Vector" d="M16.05 4.24C15.98 4.14 15.88 4.07 15.76 4.01C15.65 3.96 15.53 3.93 15.4 3.93L4.7 3.93L4.49 2.71C4.46 2.58 4.4 2.46 4.29 2.38C4.19 2.29 4.06 2.25 3.93 2.25L1.68 2.25C1.53 2.25 1.39 2.3 1.28 2.41C1.18 2.52 1.12 2.66 1.12 2.81C1.12 2.96 1.18 3.1 1.28 3.21C1.39 3.31 1.53 3.37 1.68 3.37L3.46 3.37L5.07 12.47C5.09 12.6 5.16 12.72 5.26 12.8C5.36 12.89 5.49 12.93 5.62 12.93L14.62 12.93C14.77 12.93 14.91 12.87 15.02 12.77C15.12 12.66 15.18 12.52 15.18 12.37C15.18 12.22 15.12 12.08 15.02 11.97C14.91 11.87 14.77 11.81 14.62 11.81L6.09 11.81L5.89 10.68L14.39 10.68C14.58 10.68 14.77 10.61 14.92 10.49C15.08 10.37 15.18 10.2 15.22 10L16.23 4.94C16.25 4.82 16.25 4.69 16.22 4.57C16.19 4.45 16.13 4.34 16.05 4.24Z" fill="#FFFFFF" fill-opacity="1.000000" fill-rule="nonzero"/>
	</g>
</svg>
