<svg width="19.500000" height="21.000000" viewBox="0 0 19.5 21" fill="none" xmlns="http://www.w3.org/2000/svg" xmlns:xlink="http://www.w3.org/1999/xlink">
	<desc>
			Created with Pixso.
	</desc>
	<defs/>
	<path id="Vector" d="M19.06 6.44C18.92 6.3 18.75 6.18 18.57 6.11C18.39 6.03 18.19 5.99 18 6L15 6L15 5.25C15 3.85 14.44 2.52 13.46 1.53C12.47 0.55 11.14 0 9.75 0C8.35 0 7.02 0.55 6.03 1.53C5.05 2.52 4.5 3.85 4.5 5.25L4.5 6L1.5 6C1.1 6 0.72 6.15 0.43 6.43C0.15 6.72 0 7.1 0 7.5L0 17.62C0 19.45 1.54 21 3.37 21L16.12 21C17 21 17.85 20.65 18.49 20.03C18.8 19.73 19.06 19.36 19.23 18.96C19.4 18.55 19.49 18.12 19.5 17.68L19.5 7.5C19.5 7.3 19.46 7.1 19.38 6.92C19.31 6.74 19.2 6.57 19.06 6.44ZM6 5.25C6 4.25 6.39 3.3 7.09 2.59C7.8 1.89 8.75 1.5 9.75 1.5C10.74 1.5 11.69 1.89 12.4 2.59C13.1 3.3 13.5 4.25 13.5 5.25L13.5 6L6 6L6 5.25ZM15 9.75C15 11.14 14.44 12.47 13.46 13.46C12.47 14.44 11.14 15 9.75 15C8.35 15 7.02 14.44 6.03 13.46C5.05 12.47 4.5 11.14 4.5 9.75L4.5 9C4.5 8.8 4.57 8.61 4.71 8.46C4.86 8.32 5.05 8.25 5.25 8.25C5.44 8.25 5.63 8.32 5.78 8.46C5.92 8.61 6 8.8 6 9L6 9.75C6 10.74 6.39 11.69 7.09 12.4C7.8 13.1 8.75 13.5 9.75 13.5C10.74 13.5 11.69 13.1 12.4 12.4C13.1 11.69 13.5 10.74 13.5 9.75L13.5 9C13.5 8.8 13.57 8.61 13.71 8.46C13.86 8.32 14.05 8.25 14.25 8.25C14.44 8.25 14.63 8.32 14.78 8.46C14.92 8.61 15 8.8 15 9L15 9.75Z" fill="#FFFFFF" fill-opacity="1.000000" fill-rule="nonzero"/>
</svg>
