<svg width="19.500000" height="21.000000" viewBox="0 0 19.5 21" fill="none" xmlns="http://www.w3.org/2000/svg" xmlns:xlink="http://www.w3.org/1999/xlink">
	<desc>
			Created with Pixso.
	</desc>
	<defs/>
	<path id="Vector" d="M19.06 6.44C18.92 6.3 18.75 6.18 18.57 6.11C18.39 6.03 18.19 5.99 18 6L15 6L15 5.25C15 3.85 14.44 2.52 13.46 1.53C12.47 0.55 11.14 0 9.75 0C8.35 0 7.02 0.55 6.03 1.53C5.05 2.52 4.5 3.85 4.5 5.25L4.5 6L1.5 6C1.1 6 0.72 6.15 0.43 6.43C0.15 6.72 0 7.1 0 7.5L0 17.62C0 19.45 1.54 21 3.37 21L16.12 21C17 21 17.85 20.65 18.49 20.03C18.8 19.73 19.06 19.36 19.23 18.96C19.4 18.55 19.49 18.12 19.5 17.68L19.5 7.5C19.5 7.3 19.46 7.1 19.38 6.92C19.31 6.74 19.2 6.57 19.06 6.44ZM12.75 14.25L10.5 14.25L10.5 16.5C10.5 16.69 10.42 16.88 10.28 17.03C10.13 17.17 9.94 17.25 9.75 17.25C9.55 17.25 9.36 17.17 9.21 17.03C9.07 16.88 9 16.69 9 16.5L9 14.25L6.75 14.25C6.55 14.25 6.36 14.17 6.21 14.03C6.07 13.88 6 13.69 6 13.5C6 13.3 6.07 13.11 6.21 12.96C6.36 12.82 6.55 12.75 6.75 12.75L9 12.75L9 10.5C9 10.3 9.07 10.11 9.21 9.96C9.36 9.82 9.55 9.75 9.75 9.75C9.94 9.75 10.13 9.82 10.28 9.96C10.42 10.11 10.5 10.3 10.5 10.5L10.5 12.75L12.75 12.75C12.94 12.75 13.13 12.82 13.28 12.96C13.42 13.11 13.5 13.3 13.5 13.5C13.5 13.69 13.42 13.88 13.28 14.03C13.13 14.17 12.94 14.25 12.75 14.25ZM13.5 6L6 6L6 5.25C6 4.25 6.39 3.3 7.09 2.59C7.8 1.89 8.75 1.5 9.75 1.5C10.74 1.5 11.69 1.89 12.4 2.59C13.1 3.3 13.5 4.25 13.5 5.25L13.5 6Z" fill="#FFFFFF" fill-opacity="1.000000" fill-rule="nonzero"/>
</svg>
